#!OML:ASF H:\Terrain\Patient Classification 1\Animal2\Wednesday\Animal2.ASF
:FULLY-SPECIFIED
:DEGREES
1107
root 13.3628 17.8752 -22.3367 7.6387 -20.4437 0.119179
lowerback 5.83601 -2.02147 -0.246113
upperback -4.86258 -2.78787 -0.448671
thorax -8.40544 -1.36992 0.028817
lowerneck 11.0471 5.21042 15.6121
upperneck -18.7571 6.44283 -19.7227
head -6.12625 3.79242 -9.74643
rclavicle -4.49711e-014 -2.74323e-014
rhumerus -42.6257 32.1163 -78.358
rradius 113.132
rwrist -12.7856
rhand -26.659 21.8777
rfingers 7.12502
rthumb -0.0907409 -8.10199
lclavicle -4.49711e-014 -2.74323e-014
lhumerus -36.8475 -25.167 58.795
lradius 109.951
lwrist 39.2763
lhand -10.9156 5.0552
lfingers 7.12502
lthumb 15.1018 34.4843
rfemur -11.3839 -4.18844 19.6646
rtibia 23.2723
rfoot -20.2651 4.38881
rtoes 26.8114
lfemur -11.9421 -1.06628 -21.8557
ltibia 22.3655
lfoot -16.923 5.83938
ltoes -27.5588
1108
root 13.3641 17.8767 -22.3359 7.51326 -20.5027 0.135755
lowerback 5.9088 -1.95211 -0.317484
upperback -4.73674 -2.69967 -0.450432
thorax -8.30824 -1.32258 0.0552675
lowerneck 10.8347 5.2217 15.6318
upperneck -18.5734 6.43023 -19.8526
head -6.02571 3.78952 -9.77093
rclavicle -3.50265e-014 -6.16232e-015
rhumerus -42.8841 33.5043 -78.8098
rradius 112.961
rwrist -12.144
rhand -25.4068 22.9621
rfingers 7.12502
rthumb 1.11863 -7.01476
lclavicle -3.50265e-014 -6.16232e-015
lhumerus -37.1716 -28.2615 60.2058
lradius 109.871
lwrist 37.3595
lhand -9.73942 3.72057
lfingers 7.12502
lthumb 16.2346 33.0608
rfemur -11.3076 -4.24928 19.6257
rtibia 23.3454
rfoot -20.2333 4.38944
rtoes 26.0824
lfemur -11.7674 -0.965219 -21.8813
ltibia 22.28
lfoot -16.8473 5.7445
ltoes -27.1264
1109
root 13.3661 17.8793 -22.3321 7.3342 -20.4909 0.139464
lowerback 5.86953 -1.87273 -0.390282
upperback -4.43439 -2.59374 -0.446827
thorax -7.95499 -1.26774 0.0780193
lowerneck 10.5923 5.22264 15.6173
upperneck -18.6968 6.36061 -19.9848
head -6.02596 3.75757 -9.80946
rclavicle 2.13259e-014 -2.18663e-015
rhumerus -42.4098 33.5265 -78.5581
rradius 112.692
rwrist -11.1226
rhand -24.951 24.012
rfingers 7.12502
rthumb 1.55892 -5.96206
lclavicle 2.13259e-014 -2.18663e-015
lhumerus -37.0783 -30.8096 61.3514
lradius 109.598
lwrist 35.7573
lhand -8.84064 2.55646
lfingers 7.12502
lthumb 17.0998 31.8239
rfemur -11.1142 -4.31951 19.5802
rtibia 23.3612
rfoot -20.1959 4.45295
rtoes 25.5042
lfemur -11.5462 -0.908026 -21.8933
ltibia 22.2466
lfoot -16.824 5.5384
ltoes -26.7215
1110
root 13.3698 17.8823 -22.3268 7.19529 -20.4324 0.0932131
lowerback 5.61081 -1.79209 -0.4227
upperback -3.9341 -2.47516 -0.409421
thorax -7.26435 -1.21008 0.101026
lowerneck 10.1773 5.32072 15.284
upperneck -19.1372 6.35675 -19.8503
head -6.10501 3.74802 -9.70948
rclavicle 1.88286e-014 -3.37934e-015
rhumerus -41.1562 32.3192 -77.6519
rradius 112.419
rwrist -10.2056
rhand -25.6014 24.9139
rfingers 7.12502
rthumb 0.930745 -5.06377
lclavicle 1.88286e-014 -3.37934e-015
lhumerus -36.9422 -33.1522 62.6351
lradius 109.844
lwrist 37.2339
lhand -11.8142 2.35434
lfingers 7.12502
lthumb 14.236 31.8464
rfemur -10.9353 -4.34684 19.5958
rtibia 23.3781
rfoot -20.1246 4.49656
rtoes 25.5442
lfemur -11.3252 -1.07979 -21.8555
ltibia 22.2095
lfoot -16.8524 5.51138
ltoes -26.0284
1111
root 13.3741 17.887 -22.3253 7.17313 -20.2482 0.0336439
lowerback 5.45774 -1.78886 -0.388814
upperback -3.59411 -2.45736 -0.346961
thorax -6.81199 -1.20342 0.132823
lowerneck 9.55464 5.41038 15.164
upperneck -19.1805 6.35242 -19.9724
head -6.00211 3.73971 -9.69909
rclavicle 3.40295e-014 1.61016e-014
rhumerus -39.8008 30.2673 -76.611
rradius 112.185
rwrist -9.82242
rhand -27.2419 24.8211
rfingers 7.12502
rthumb -0.653707 -5.15762
lclavicle 3.40295e-014 1.61016e-014
lhumerus -35.7505 -32.7968 62.1964
lradius 108.717
lwrist 32.6058
lhand -6.82131 2.00994
lfingers 7.12502
lthumb 19.0427 31.0977
rfemur -10.884 -4.39334 19.6554
rtibia 23.4284
rfoot -20.0936 4.39339
rtoes 25.8312
lfemur -11.2611 -1.10368 -21.796
ltibia 22.1743
lfoot -16.8764 5.36817
ltoes -25.7789
